<svg xmlns="http://www.w3.org/2000/svg" viewBox="0 0 50 50" width="50" height="50">
  <g stroke="#000" stroke-width="2" stroke-linejoin="round" stroke-linecap="round">
    <!-- Main building -->
    <rect x="5" y="22" width="40" height="23" rx="2" fill="#ffffff"/>

    <!-- Top header -->
    <rect x="5" y="5" width="40" height="6" rx="2" fill="#d71920"/>

    <!-- Small header dots -->
    <circle cx="9" cy="8" r="0.9" fill="#ffffff"/>
    <circle cx="12.5" cy="8" r="0.9" fill="#ffffff"/>
    <circle cx="16" cy="8" r="0.9" fill="#ffffff"/>

    <!-- Awning base -->
    <path d="M6 11 H44 L45.3 18.2 C45.5 20.4 43.9 22 41.8 22 H8.2 C6.1 22 4.5 20.4 4.7 18.2 Z" fill="#ffffff"/>

    <!-- Awning stripes -->
    <path d="M6.7 11 H11.7 L11 22 H8.2 C6.6 22 5.2 21.1 4.9 19.7 Z" fill="#d71920"/>
    <path d="M13 11 H18 L18 22 H13 Z" fill="#d71920"/>
    <path d="M20 11 H25 L25 22 H20 Z" fill="#d71920"/>
    <path d="M27 11 H32 L32 22 H27 Z" fill="#d71920"/>
    <path d="M34 11 H39 L39 22 H34 Z" fill="#d71920"/>
    <path d="M40.3 11 H44 L45.1 19.7 C44.8 21.1 43.4 22 41.8 22 H39 Z" fill="#d71920"/>

    <!-- Door -->
    <rect x="10" y="29" width="9" height="16" fill="#d71920"/>
    <line x1="14.5" y1="29" x2="14.5" y2="45"/>

    <!-- Window -->
    <rect x="24" y="29" width="16" height="11" fill="#ffffff"/>
    <line x1="32" y1="29" x2="32" y2="40"/>
    <line x1="24" y1="34.5" x2="40" y2="34.5"/>
  </g>
</svg>